<?xml version="1.0" encoding="UTF-8"?>
<svg id="Layer_2" data-name="Layer 2" xmlns="http://www.w3.org/2000/svg" viewBox="0 0 300 300">
  <defs>
    <style>
      .cls-1, .cls-2 {
        stroke-width: 0px;
      }

      .cls-2 {
        fill: #fff;
      }
    </style>
  </defs>
  <g id="Layer_1-2" data-name="Layer 1">
    <g>
      <rect class="cls-2" width="300" height="300"/>
      <g>
        <path class="cls-1" d="m87.02,121.08v22.61h45.37v22.46h-45.37v35.24h-29.07v-102.77h80.6v22.46h-51.53Z"/>
        <path class="cls-1" d="m141.34,150c0-31.27,23.93-53.44,56.53-53.44,18.94,0,34.21,6.9,44.19,19.38l-18.5,16.74c-6.46-7.78-14.39-12.04-24.23-12.04-16.88,0-28.63,11.75-28.63,29.36s11.75,29.36,28.63,29.36c9.84,0,17.77-4.26,24.23-12.04l18.5,16.74c-9.98,12.48-25.25,19.38-44.19,19.38-32.59,0-56.53-22.17-56.53-53.44Z"/>
      </g>
    </g>
  </g>
</svg>